<?xml version="1.0" encoding="UTF-8"?>
<svg xmlns="http://www.w3.org/2000/svg" viewBox="0 0 1400 820" width="1400" height="820" role="img" aria-label="Opsy connection and store profile ladder">
<defs>
<marker id="a07" markerWidth="10" markerHeight="7" refX="9" refY="3.5" orient="auto"><polygon points="0 0, 10 3.5, 0 7" fill="#C15F3C"/></marker>
<style>
.label { fill: #1F1E1D; font-family: Helvetica, Arial, "PingFang SC", "Microsoft YaHei", sans-serif; font-weight: 600; }
.label-sub { fill: #6B6560; font-family: Helvetica, Arial, "PingFang SC", "Microsoft YaHei", sans-serif; font-weight: 400; }
.label-tiny { fill: #8A8279; font-family: Helvetica, Arial, "PingFang SC", "Microsoft YaHei", sans-serif; font-weight: 400; }
.label-accent { fill: #C15F3C; font-family: Helvetica, Arial, "PingFang SC", "Microsoft YaHei", sans-serif; font-weight: 600; }
.mono { font-family: Consolas, Menlo, "Microsoft YaHei", monospace; }
</style>
</defs>
<rect width="1400" height="820" rx="2" fill="#FAF7F2" stroke="#E5DFD6" stroke-width="1"/>
<rect x="0" y="0" width="4" height="48" fill="#C15F3C"/>
<line x1="0" y1="48" x2="1400" y2="48" stroke="#C15F3C" stroke-width="1.5"/>
<text x="20" y="29" fill="#6B6560" font-size="13" class="mono">opsy / docs/diagrams / 07-connection-profile.svg</text>
<rect x="1364" y="18" width="16" height="12" fill="#C15F3C"/>

<text x="700" y="84" text-anchor="middle" class="label" font-size="22">连接与企业画像</text>
<text x="700" y="108" text-anchor="middle" class="label-sub" font-size="14">连接前可做画像与 FAQ 整理 · 不做技术报告 · 连接后拆分 write_ready</text>

<rect x="40" y="140" width="250" height="300" rx="4" fill="#FFFFFF" stroke="#E5DFD6"/>
<rect x="40" y="140" width="250" height="48" fill="#F3E6DF"/>
<text x="165" y="160" text-anchor="middle" class="label-tiny" font-size="11">LADDER 1</text>
<text x="165" y="178" text-anchor="middle" class="label" font-size="14">连接前</text>
<rect x="56" y="208" width="218" height="48" rx="2" fill="#FFFFFF" stroke="#E5DFD6"/>
<text x="165" y="236" text-anchor="middle" class="label" font-size="12">企业画像问卷</text>
<rect x="56" y="268" width="218" height="48" rx="2" fill="#FFFFFF" stroke="#E5DFD6"/>
<text x="165" y="296" text-anchor="middle" class="label" font-size="12">经营事实 / FAQ 整理</text>
<rect x="56" y="328" width="218" height="48" rx="2" fill="#F3E6DF" stroke="#C15F3C"/>
<text x="165" y="356" text-anchor="middle" class="label" font-size="12">opsy.mjs doctor</text>
<text x="165" y="420" text-anchor="middle" class="label-tiny" font-size="11">禁止 Admin 推断 / 写入</text>

<line x1="300" y1="290" x2="340" y2="290" stroke="#C15F3C" stroke-width="2" marker-end="url(#a07)"/>

<rect x="350" y="140" width="250" height="300" rx="4" fill="#FFFFFF" stroke="#C15F3C" stroke-width="1.8"/>
<rect x="350" y="140" width="250" height="48" fill="#C15F3C"/>
<text x="475" y="160" text-anchor="middle" class="label" font-size="11" fill="#FAF7F2">LADDER 2</text>
<text x="475" y="178" text-anchor="middle" class="label" font-size="14" fill="#FAF7F2">Shopify CLI 连接</text>
<rect x="366" y="208" width="218" height="48" rx="2" fill="#F3E6DF" stroke="#C15F3C" stroke-width="1.6"/>
<text x="475" y="228" text-anchor="middle" class="label" font-size="12">CLI 版本钉扎</text>
<text x="475" y="246" text-anchor="middle" class="label-tiny" font-size="10">toolchain.json</text>
<rect x="366" y="268" width="218" height="48" rx="2" fill="#F3E6DF" stroke="#C15F3C" stroke-width="1.6"/>
<text x="475" y="288" text-anchor="middle" class="label" font-size="12">store auth</text>
<text x="475" y="306" text-anchor="middle" class="label-tiny" font-size="10">不读凭证文件</text>
<rect x="366" y="328" width="218" height="48" rx="2" fill="#F3E6DF" stroke="#C15F3C" stroke-width="1.6"/>
<text x="475" y="348" text-anchor="middle" class="label" font-size="12">只读 smoke</text>
<text x="475" y="366" text-anchor="middle" class="label-tiny" font-size="10">scopes + 时间戳</text>
<text x="475" y="420" text-anchor="middle" class="label-tiny" font-size="11">店域必须一致</text>

<line x1="610" y1="290" x2="650" y2="290" stroke="#C15F3C" stroke-width="2" marker-end="url(#a07)"/>

<rect x="660" y="140" width="250" height="300" rx="4" fill="#FFFFFF" stroke="#C15F3C" stroke-width="1.8"/>
<rect x="660" y="140" width="250" height="48" fill="#C15F3C"/>
<text x="785" y="160" text-anchor="middle" class="label" font-size="11" fill="#FAF7F2">LADDER 3</text>
<text x="785" y="178" text-anchor="middle" class="label" font-size="14" fill="#FAF7F2">轻量档案</text>
<rect x="676" y="208" width="218" height="48" rx="2" fill="#F3E6DF" stroke="#C15F3C" stroke-width="1.6"/>
<text x="785" y="228" text-anchor="middle" class="label" font-size="12">store-profile.json</text>
<text x="785" y="246" text-anchor="middle" class="label-tiny" font-size="10">必填证据校验</text>
<rect x="676" y="268" width="218" height="48" rx="2" fill="#FFFFFF" stroke="#E5DFD6"/>
<text x="785" y="288" text-anchor="middle" class="label" font-size="12">Blog / 发布渠道</text>
<text x="785" y="306" text-anchor="middle" class="label-tiny" font-size="10">市场 · 语言 · CTA</text>
<rect x="676" y="328" width="218" height="48" rx="2" fill="#FFFFFF" stroke="#E5DFD6"/>
<text x="785" y="348" text-anchor="middle" class="label" font-size="12">content_voice</text>
<text x="785" y="366" text-anchor="middle" class="label-tiny" font-size="10">卖家角色</text>
<text x="785" y="420" text-anchor="middle" class="label-tiny" font-size="11">手填 complete 不算通过</text>

<line x1="920" y1="290" x2="960" y2="290" stroke="#C15F3C" stroke-width="2" marker-end="url(#a07)"/>

<rect x="970" y="140" width="390" height="300" rx="4" fill="#FFFFFF" stroke="#E5DFD6"/>
<rect x="970" y="140" width="390" height="48" fill="#F3E6DF"/>
<text x="1165" y="160" text-anchor="middle" class="label-tiny" font-size="11">LADDER 4</text>
<text x="1165" y="178" text-anchor="middle" class="label" font-size="14">按工作流能力拆分</text>
<rect x="990" y="208" width="160" height="70" rx="2" fill="#E8F0EA" stroke="#4A6B54"/>
<text x="1070" y="238" text-anchor="middle" class="label" font-size="12" fill="#4A6B54">products</text>
<text x="1070" y="258" text-anchor="middle" class="label-tiny" font-size="10">write_ready?</text>
<rect x="1170" y="208" width="160" height="70" rx="2" fill="#E8F0EA" stroke="#4A6B54"/>
<text x="1250" y="238" text-anchor="middle" class="label" font-size="12" fill="#4A6B54">blog</text>
<text x="1250" y="258" text-anchor="middle" class="label-tiny" font-size="10">write_ready?</text>
<rect x="990" y="294" width="160" height="70" rx="2" fill="#FAF7F2" stroke="#E5DFD6"/>
<text x="1070" y="324" text-anchor="middle" class="label" font-size="12">redirects</text>
<text x="1070" y="344" text-anchor="middle" class="label-tiny" font-size="10">missing → 清单</text>
<rect x="1170" y="294" width="160" height="70" rx="2" fill="#FAF7F2" stroke="#E5DFD6"/>
<text x="1250" y="324" text-anchor="middle" class="label" font-size="12">metafields</text>
<text x="1250" y="344" text-anchor="middle" class="label-tiny" font-size="10">定义须已存在</text>
<text x="1165" y="420" text-anchor="middle" class="label-tiny" font-size="11">缺能力只挡该工作流 · 本地准备仍可做</text>

<rect x="40" y="470" width="1320" height="140" rx="4" fill="#FFFFFF" stroke="#E5DFD6"/>
<text x="60" y="502" class="label-accent" font-size="13">连接证据 · 必须可验证</text>
<rect x="60" y="520" width="240" height="64" rx="2" fill="#F3E6DF" stroke="#C15F3C"/>
<text x="180" y="548" text-anchor="middle" class="label" font-size="13">store_domain 一致</text>
<text x="180" y="568" text-anchor="middle" class="label-tiny" font-size="10">profile ↔ connection</text>
<rect x="320" y="520" width="240" height="64" rx="2" fill="#F3E6DF" stroke="#C15F3C"/>
<text x="440" y="548" text-anchor="middle" class="label" font-size="13">timestamps</text>
<text x="440" y="568" text-anchor="middle" class="label-tiny" font-size="10">连接 / 档案新鲜度</text>
<rect x="580" y="520" width="240" height="64" rx="2" fill="#F3E6DF" stroke="#C15F3C"/>
<text x="700" y="548" text-anchor="middle" class="label" font-size="13">granted scopes</text>
<text x="700" y="568" text-anchor="middle" class="label-tiny" font-size="10">按写入能力映射</text>
<rect x="840" y="520" width="240" height="64" rx="2" fill="#F3E6DF" stroke="#C15F3C"/>
<text x="960" y="548" text-anchor="middle" class="label" font-size="13">read-only smoke</text>
<text x="960" y="568" text-anchor="middle" class="label-tiny" font-size="10">同通道证据</text>
<rect x="1100" y="520" width="240" height="64" rx="2" fill="#F8E8E4" stroke="#B54A3A"/>
<text x="1220" y="548" text-anchor="middle" class="label" font-size="13" fill="#B54A3A">凭证卫生</text>
<text x="1220" y="568" text-anchor="middle" class="label-tiny" font-size="10">永不读/记 token</text>

<rect x="40" y="640" width="1320" height="120" rx="4" fill="#FFFFFF" stroke="#E5DFD6"/>
<text x="60" y="674" class="label-accent" font-size="13">企业主版 Site Foundation 边界</text>
<text x="60" y="706" class="label" font-size="13">只保留画像问卷：产品线 · 买家角色 · 销售问题 · 异议 · 商业事实 · 受限主张 · 负责人</text>
<text x="60" y="736" class="label-tiny" font-size="12">不提供 Tracking · CWV · 结构化数据 · 索引抓取 · 主题代码或其他技术验收报告</text>
<text x="1380" y="800" text-anchor="end" class="label-tiny mono" font-size="11">07 / connection / terracotta</text>
</svg>
